<?xml version="1.0" encoding="UTF-8" standalone="no"?>
<!-- Created with Inkscape (http://www.inkscape.org/) -->

<svg
   xmlns:dc="http://purl.org/dc/elements/1.1/"
   xmlns:cc="http://creativecommons.org/ns#"
   xmlns:rdf="http://www.w3.org/1999/02/22-rdf-syntax-ns#"
   xmlns:svg="http://www.w3.org/2000/svg"
   xmlns="http://www.w3.org/2000/svg"
   xmlns:sodipodi="http://sodipodi.sourceforge.net/DTD/sodipodi-0.dtd"
   xmlns:inkscape="http://www.inkscape.org/namespaces/inkscape"
   width="550"
   height="90"
   viewBox="0 0 145.52083 23.812501"
   version="1.1"
   id="svg8"
   inkscape:version="0.92.2 5c3e80d, 2017-08-06"
   sodipodi:docname="title.svg">
  <defs
     id="defs2" />
  <sodipodi:namedview
     id="base"
     pagecolor="#ffffff"
     bordercolor="#666666"
     borderopacity="1.0"
     inkscape:pageopacity="0.0"
     inkscape:pageshadow="2"
     inkscape:zoom="1.4"
     inkscape:cx="291.83854"
     inkscape:cy="134.04178"
     inkscape:document-units="mm"
     inkscape:current-layer="layer2"
     showgrid="true"
     units="px"
     fit-margin-top="0"
     fit-margin-left="0"
     fit-margin-right="0"
     fit-margin-bottom="0"
     inkscape:window-width="1440"
     inkscape:window-height="850"
     inkscape:window-x="0"
     inkscape:window-y="0"
     inkscape:window-maximized="1">
    <inkscape:grid
       type="xygrid"
       id="grid3699"
       originx="-42.333329"
       originy="-103.1875" />
  </sodipodi:namedview>
  <metadata
     id="metadata5">
    <rdf:RDF>
      <cc:Work
         rdf:about="">
        <dc:format>image/svg+xml</dc:format>
        <dc:type
           rdf:resource="http://purl.org/dc/dcmitype/StillImage" />
        <dc:title></dc:title>
      </cc:Work>
    </rdf:RDF>
  </metadata>
  <g
     inkscape:label="Calque 1"
     inkscape:groupmode="layer"
     id="layer1"
     transform="translate(-42.333332,-170)">
    <flowRoot
       xml:space="preserve"
       id="flowRoot3782"
       style="font-style:normal;font-weight:normal;font-size:40px;line-height:1.25;font-family:sans-serif;letter-spacing:0px;word-spacing:0px;fill:#000000;fill-opacity:1;stroke:none"
       transform="scale(0.26458333)"><flowRegion
         id="flowRegion3784"><rect
           id="rect3786"
           width="120"
           height="100"
           x="440"
           y="662.51971" /></flowRegion><flowPara
         id="flowPara3788"></flowPara></flowRoot>  </g>
  <g
     inkscape:groupmode="layer"
     id="layer2"
     inkscape:label="work"
     transform="translate(-42.333332,-170)">
    <rect
       style="fill:#a52129;fill-opacity:1;stroke-width:0.26458332"
       id="rect3977"
       width="15.875"
       height="15.875"
       x="171.97917"
       y="177.9375"
       ry="8.5265128e-14" />
    <rect
       id="rect3973"
       width="140.22917"
       height="15.875"
       x="39.687504"
       y="170"
       style="fill:#d22129;fill-opacity:1;stroke-width:0.26711527" />
    <g
       aria-label="DEVIENS BÉNÉVOLE À L'AFEV !"
       transform="matrix(0.28111095,0,0,0.53239002,9.2199599,-157.54569)"
       style="font-style:normal;font-weight:normal;font-size:40px;line-height:0.5;font-family:sans-serif;letter-spacing:-2.11488891px;word-spacing:0px;fill:#ffffff;fill-opacity:1;stroke:none"
       id="flowRoot3791">
      <path
         d="m 179.23502,632.65239 q 0,4.97054 -2.83637,7.61416 -2.82261,2.64361 -8.1649,2.64361 h -5.70029 v -20.13 h 6.31988 q 4.92924,0 7.65546,2.6023 2.72622,2.60231 2.72622,7.26993 z m -4.43355,0.11015 q 0,-6.4851 -5.72783,-6.4851 h -2.27185 v 13.1079 h 1.83125 q 6.16843,0 6.16843,-6.6228 z"
         style="font-style:normal;font-variant:normal;font-weight:bold;font-stretch:normal;font-size:28.19851875px;line-height:0.5;font-family:'Noto Sans UI';-inkscape-font-specification:'Noto Sans UI Bold';letter-spacing:-0.34543183px;fill:#ffffff;stroke:none"
         id="path4805" />
      <path
         d="m 194.65488,642.91016 h -11.59334 v -20.13 h 11.59334 v 3.49728 h -7.32501 v 4.41978 h 6.81556 v 3.49728 h -6.81556 v 5.19084 h 7.32501 z"
         style="font-style:normal;font-variant:normal;font-weight:bold;font-stretch:normal;font-size:28.19851875px;line-height:0.5;font-family:'Noto Sans UI';-inkscape-font-specification:'Noto Sans UI Bold';letter-spacing:-0.34543183px;fill:#ffffff;stroke:none"
         id="path4807" />
      <path
         d="m 210.00589,622.78016 h 4.30963 l -6.8431,20.13 h -4.65385 l -6.82933,-20.13 h 4.30964 l 3.78642,11.97886 q 0.31668,1.0602 0.64713,2.47839 0.34422,1.40442 0.42683,1.95517 0.15146,-1.26673 1.03267,-4.43356 z"
         style="font-style:normal;font-variant:normal;font-weight:bold;font-stretch:normal;font-size:28.19851875px;line-height:0.5;font-family:'Noto Sans UI';-inkscape-font-specification:'Noto Sans UI Bold';letter-spacing:-0.34543183px;fill:#ffffff;stroke:none"
         id="path4809" />
      <path
         d="m 224.04886,642.91016 h -9.15626 v -2.42331 l 2.45085,-1.12905 v -13.02529 l -2.45085,-1.12904 v -2.42331 h 9.15626 v 2.42331 l -2.45085,1.12904 v 13.02529 l 2.45085,1.12905 z"
         style="font-style:normal;font-variant:normal;font-weight:bold;font-stretch:normal;font-size:28.19851875px;line-height:0.5;font-family:'Noto Sans UI';-inkscape-font-specification:'Noto Sans UI Bold';letter-spacing:-0.34543183px;fill:#ffffff;stroke:none"
         id="path4811" />
      <path
         d="m 238.72519,642.91016 h -11.59333 v -20.13 h 11.59333 v 3.49728 h -7.325 v 4.41978 h 6.81556 v 3.49728 h -6.81556 v 5.19084 h 7.325 z"
         style="font-style:normal;font-variant:normal;font-weight:bold;font-stretch:normal;font-size:28.19851875px;line-height:0.5;font-family:'Noto Sans UI';-inkscape-font-specification:'Noto Sans UI Bold';letter-spacing:-0.34543183px;fill:#ffffff;stroke:none"
         id="path4813" />
      <path
         d="m 260.45117,642.91016 h -5.42491 l -8.75696,-15.22831 h -0.12392 q 0.2616,4.03427 0.2616,5.75537 v 9.47294 h -3.81396 v -20.13 h 5.38361 l 8.74319,15.07684 h 0.0964 q -0.20653,-3.92411 -0.20653,-5.54883 v -9.52801 h 3.8415 z"
         style="font-style:normal;font-variant:normal;font-weight:bold;font-stretch:normal;font-size:28.19851875px;line-height:0.5;font-family:'Noto Sans UI';-inkscape-font-specification:'Noto Sans UI Bold';letter-spacing:-0.34543183px;fill:#ffffff;stroke:none"
         id="path4815" />
      <path
         d="m 277.04137,637.32002 q 0,2.72622 -1.96894,4.29587 -1.95517,1.56964 -5.45245,1.56964 -3.2219,0 -5.70028,-1.21165 v -3.96542 q 2.03778,0.90874 3.4422,1.2805 1.41818,0.37176 2.58853,0.37176 1.40442,0 2.14794,-0.53699 0.75728,-0.53698 0.75728,-1.59718 0,-0.59206 -0.33045,-1.04643 -0.33045,-0.46814 -0.97759,-0.89497 -0.63336,-0.42683 -2.6023,-1.36311 -1.84502,-0.86744 -2.76753,-1.66603 -0.92251,-0.79859 -1.47326,-1.85879 -0.55076,-1.06019 -0.55076,-2.47838 0,-2.67115 1.80372,-4.19949 1.81748,-1.52834 5.01184,-1.52834 1.56965,0 2.98784,0.37176 1.43195,0.37176 2.98783,1.04643 l -1.37688,3.31828 q -1.61095,-0.6609 -2.67115,-0.92251 -1.04643,-0.2616 -2.06532,-0.2616 -1.21166,0 -1.85879,0.56452 -0.64714,0.56452 -0.64714,1.47326 0,0.56452 0.26161,0.99135 0.26161,0.41307 0.82613,0.81236 0.57829,0.38553 2.71245,1.40442 2.82261,1.34935 3.86904,2.71246 1.04643,1.34934 1.04643,3.31828 z"
         style="font-style:normal;font-variant:normal;font-weight:bold;font-stretch:normal;font-size:28.19851875px;line-height:0.5;font-family:'Noto Sans UI';-inkscape-font-specification:'Noto Sans UI Bold';letter-spacing:-0.34543183px;fill:#ffffff;stroke:none"
         id="path4817" />
      <path
         d="m 287.32425,622.78016 h 6.26481 q 4.28209,0 6.20973,1.22542 1.9414,1.21166 1.9414,3.86904 0,1.80371 -0.85367,2.96029 -0.83989,1.15658 -2.24431,1.39065 v 0.13769 q 1.91386,0.42683 2.75376,1.59718 0.85367,1.17035 0.85367,3.11175 0,2.75376 -1.99648,4.29587 -1.98271,1.54211 -5.39737,1.54211 h -7.53154 z m 4.26833,7.97214 h 2.47838 q 1.73487,0 2.50593,-0.53698 0.78482,-0.53699 0.78482,-1.77618 0,-1.15658 -0.85367,-1.65226 -0.83989,-0.50944 -2.67115,-0.50944 h -2.24431 z m 0,3.38713 v 5.24591 h 2.7813 q 1.7624,0 2.6023,-0.67467 0.8399,-0.67467 0.8399,-2.06532 0,-2.50592 -3.57989,-2.50592 z"
         style="font-style:normal;font-variant:normal;font-weight:bold;font-stretch:normal;font-size:28.19851875px;line-height:0.5;font-family:'Noto Sans UI';-inkscape-font-specification:'Noto Sans UI Bold';letter-spacing:-0.34543183px;fill:#ffffff;stroke:none"
         id="path4819" />
      <path
         d="M 317.51803,642.91016 H 305.9247 v -20.13 h 11.59333 v 3.49728 h -7.325 v 4.41978 h 6.81556 v 3.49728 h -6.81556 v 5.19084 h 7.325 z m -8.28882,-21.74095 v -0.37176 q 2.36823,-2.75376 3.23567,-4.14441 h 4.70893 v 0.28914 q -0.71598,0.71598 -2.45085,2.13417 -1.7211,1.40442 -2.69868,2.09286 z"
         style="font-style:normal;font-variant:normal;font-weight:bold;font-stretch:normal;font-size:28.19851875px;line-height:0.5;font-family:'Noto Sans UI';-inkscape-font-specification:'Noto Sans UI Bold';letter-spacing:-0.34543183px;fill:#ffffff;stroke:none"
         id="path4821" />
      <path
         d="m 339.24399,642.91016 h -5.42491 l -8.75696,-15.22831 h -0.12392 q 0.26161,4.03427 0.26161,5.75537 v 9.47294 h -3.81396 v -20.13 h 5.3836 l 8.74319,15.07684 h 0.0964 q -0.20654,-3.92411 -0.20654,-5.54883 v -9.52801 h 3.8415 z"
         style="font-style:normal;font-variant:normal;font-weight:bold;font-stretch:normal;font-size:28.19851875px;line-height:0.5;font-family:'Noto Sans UI';-inkscape-font-specification:'Noto Sans UI Bold';letter-spacing:-0.34543183px;fill:#ffffff;stroke:none"
         id="path4823" />
      <path
         d="m 355.54506,642.91016 h -11.59334 v -20.13 h 11.59334 v 3.49728 h -7.32501 v 4.41978 h 6.81556 v 3.49728 h -6.81556 v 5.19084 h 7.32501 z m -8.28883,-21.74095 v -0.37176 q 2.36824,-2.75376 3.23567,-4.14441 h 4.70894 v 0.28914 q -0.71598,0.71598 -2.45085,2.13417 -1.7211,1.40442 -2.69869,2.09286 z"
         style="font-style:normal;font-variant:normal;font-weight:bold;font-stretch:normal;font-size:28.19851875px;line-height:0.5;font-family:'Noto Sans UI';-inkscape-font-specification:'Noto Sans UI Bold';letter-spacing:-0.34543183px;fill:#ffffff;stroke:none"
         id="path4825" />
      <path
         d="m 370.89606,622.78016 h 4.30963 l -6.84309,20.13 h -4.65386 l -6.82933,-20.13 h 4.30964 l 3.78642,11.97886 q 0.31668,1.0602 0.64713,2.47839 0.34422,1.40442 0.42684,1.95517 0.15145,-1.26673 1.03266,-4.43356 z"
         style="font-style:normal;font-variant:normal;font-weight:bold;font-stretch:normal;font-size:28.19851875px;line-height:0.5;font-family:'Noto Sans UI';-inkscape-font-specification:'Noto Sans UI Bold';letter-spacing:-0.34543183px;fill:#ffffff;stroke:none"
         id="path4827" />
      <path
         d="m 395.56855,632.81762 q 0,4.99808 -2.47838,7.68299 -2.47839,2.68492 -7.10471,2.68492 -4.62632,0 -7.1047,-2.68492 -2.47839,-2.68491 -2.47839,-7.71053 0,-5.02561 2.47839,-7.66922 2.49215,-2.65738 7.13224,-2.65738 4.64009,0 7.09094,2.67115 2.46461,2.67114 2.46461,7.68299 z m -14.69131,0 q 0,3.37336 1.2805,5.08069 1.28049,1.70733 3.82772,1.70733 5.10823,0 5.10823,-6.78802 0,-6.80179 -5.08069,-6.80179 -2.54723,0 -3.8415,1.7211 -1.29426,1.70733 -1.29426,5.08069 z"
         style="font-style:normal;font-variant:normal;font-weight:bold;font-stretch:normal;font-size:28.19851875px;line-height:0.5;font-family:'Noto Sans UI';-inkscape-font-specification:'Noto Sans UI Bold';letter-spacing:-0.34543183px;fill:#ffffff;stroke:none"
         id="path4829" />
      <path
         d="m 399.42261,642.91016 v -20.13 h 4.26833 v 16.60518 h 8.1649 v 3.52482 z"
         style="font-style:normal;font-variant:normal;font-weight:bold;font-stretch:normal;font-size:28.19851875px;line-height:0.5;font-family:'Noto Sans UI';-inkscape-font-specification:'Noto Sans UI Bold';letter-spacing:-0.34543183px;fill:#ffffff;stroke:none"
         id="path4831" />
      <path
         d="m 426.58726,642.91016 h -11.59333 v -20.13 h 11.59333 v 3.49728 h -7.325 v 4.41978 h 6.81556 v 3.49728 h -6.81556 v 5.19084 h 7.325 z"
         style="font-style:normal;font-variant:normal;font-weight:bold;font-stretch:normal;font-size:28.19851875px;line-height:0.5;font-family:'Noto Sans UI';-inkscape-font-specification:'Noto Sans UI Bold';letter-spacing:-0.34543183px;fill:#ffffff;stroke:none"
         id="path4833" />
      <path
         d="m 449.75773,642.91016 -1.4595,-4.79155 h -7.33877 l -1.45949,4.79155 h -4.59879 l 7.10471,-20.21261 h 5.21838 l 7.13224,20.21261 z m -2.47839,-8.37144 q -2.02401,-6.51265 -2.28562,-7.36631 -0.24784,-0.85367 -0.35799,-1.34934 -0.45437,1.7624 -2.6023,8.71565 z m -2.561,-13.36951 q -0.86743,-0.60583 -2.54723,-1.95517 -1.67979,-1.36311 -2.61607,-2.27186 v -0.28914 h 4.70893 q 0.86744,1.39065 3.23567,4.14441 v 0.37176 z"
         style="font-style:normal;font-variant:normal;font-weight:bold;font-stretch:normal;font-size:28.19851875px;line-height:0.5;font-family:'Noto Sans UI';-inkscape-font-specification:'Noto Sans UI Bold';letter-spacing:-0.34543183px;fill:#ffffff;stroke:none"
         id="path4835" />
      <path
         d="m 463.51036,642.91016 v -20.13 h 4.26833 v 16.60518 h 8.1649 v 3.52482 z"
         style="font-style:normal;font-variant:normal;font-weight:bold;font-stretch:normal;font-size:28.19851875px;line-height:0.5;font-family:'Noto Sans UI';-inkscape-font-specification:'Noto Sans UI Bold';letter-spacing:-0.34543183px;fill:#ffffff;stroke:none"
         id="path4837" />
      <path
         d="m 481.11943,622.78016 -0.56452,7.26993 h -2.71245 l -0.56452,-7.26993 z"
         style="font-style:normal;font-variant:normal;font-weight:bold;font-stretch:normal;font-size:28.19851875px;line-height:0.5;font-family:'Noto Sans UI';-inkscape-font-specification:'Noto Sans UI Bold';letter-spacing:-0.34543183px;fill:#ffffff;stroke:none"
         id="path4839" />
      <path
         d="m 496.51176,642.91016 -1.4595,-4.79155 h -7.33877 l -1.4595,4.79155 h -4.59878 l 7.10471,-20.21261 h 5.21838 l 7.13224,20.21261 z m -2.47839,-8.37144 q -2.02401,-6.51265 -2.28562,-7.36631 -0.24784,-0.85367 -0.35799,-1.34934 -0.45437,1.7624 -2.60231,8.71565 z"
         style="font-style:normal;font-variant:normal;font-weight:bold;font-stretch:normal;font-size:28.19851875px;line-height:0.5;font-family:'Noto Sans UI';-inkscape-font-specification:'Noto Sans UI Bold';letter-spacing:-0.34543183px;fill:#ffffff;stroke:none"
         id="path4841" />
      <path
         d="m 507.48429,642.91016 h -4.19949 v -20.13 h 11.53826 v 3.49728 h -7.33877 v 5.19084 h 6.82933 v 3.48351 h -6.82933 z"
         style="font-style:normal;font-variant:normal;font-weight:bold;font-stretch:normal;font-size:28.19851875px;line-height:0.5;font-family:'Noto Sans UI';-inkscape-font-specification:'Noto Sans UI Bold';letter-spacing:-0.34543183px;fill:#ffffff;stroke:none"
         id="path4843" />
      <path
         d="m 530.00885,642.91016 h -11.59334 v -20.13 h 11.59334 v 3.49728 h -7.32501 v 4.41978 h 6.81556 v 3.49728 h -6.81556 v 5.19084 h 7.32501 z"
         style="font-style:normal;font-variant:normal;font-weight:bold;font-stretch:normal;font-size:28.19851875px;line-height:0.5;font-family:'Noto Sans UI';-inkscape-font-specification:'Noto Sans UI Bold';letter-spacing:-0.34543183px;fill:#ffffff;stroke:none"
         id="path4845" />
      <path
         d="m 545.35985,622.78016 h 4.30963 l -6.84309,20.13 h -4.65386 l -6.82933,-20.13 h 4.30964 l 3.78642,11.97886 q 0.31668,1.0602 0.64713,2.47839 0.34422,1.40442 0.42684,1.95517 0.15145,-1.26673 1.03266,-4.43356 z"
         style="font-style:normal;font-variant:normal;font-weight:bold;font-stretch:normal;font-size:28.19851875px;line-height:0.5;font-family:'Noto Sans UI';-inkscape-font-specification:'Noto Sans UI Bold';letter-spacing:-0.34543183px;fill:#ffffff;stroke:none"
         id="path4847" />
      <path
         d="m 562.04524,636.23228 h -3.35959 l -0.70221,-13.45212 h 4.76401 z m -4.11688,4.70894 q 0,-1.15658 0.6196,-1.74864 0.6196,-0.59206 1.80371,-0.59206 1.14282,0 1.76241,0.60583 0.63337,0.60582 0.63337,1.73487 0,1.08773 -0.63337,1.7211 -0.63336,0.61959 -1.76241,0.61959 -1.15658,0 -1.78994,-0.60582 -0.63337,-0.6196 -0.63337,-1.73487 z"
         style="font-style:normal;font-variant:normal;font-weight:bold;font-stretch:normal;font-size:28.19851875px;line-height:0.5;font-family:'Noto Sans UI';-inkscape-font-specification:'Noto Sans UI Bold';letter-spacing:-0.34543183px;fill:#ffffff;stroke:none"
         id="path4849" />
    </g>
    <path
       style="fill:#132129;fill-opacity:1;stroke:none;stroke-width:0.26458332px;stroke-linecap:butt;stroke-linejoin:miter;stroke-opacity:1"
       d="m 179.91666,185.875 -7.9375,7.9375 v -7.9375 z"
       id="path4784"
       inkscape:connector-curvature="0" />
  </g>
</svg>
